<svg xmlns="http://www.w3.org/2000/svg" viewBox="0 0 64 64">
  <defs>
    <linearGradient id="reaperCloak" x1="0" x2="1" y1="0" y2="1">
      <stop offset="0" stop-color="#ffe09c"/>
      <stop offset="1" stop-color="#c58a1f"/>
    </linearGradient>
  </defs>
  <path d="M32 8c12 0 22 11 22 24 0 6-2 11-5 15l-5 8H20l-5-8c-3-4-5-9-5-15C10 19 20 8 32 8Z" fill="#3f2d12"/>
  <path d="M18 41c4-7 8-11 14-11s10 4 14 11v14H18V41Z" fill="url(#reaperCloak)"/>
  <path d="M22 24c2-8 8-13 16-13 4 0 8 1 12 4-3 0-7 2-9 6-2 4-2 10-2 13H22c-1-3-1-7 0-10Z" fill="#24180d"/>
  <circle cx="27" cy="30" r="3.4" fill="#fff9e9"/>
  <circle cx="37" cy="30" r="3.4" fill="#fff9e9"/>
  <path d="M25 39c4 3 10 3 14 0" stroke="#24180d" stroke-width="2.6" stroke-linecap="round" fill="none"/>
  <path d="M49 16l7-7" stroke="#f8e1ac" stroke-width="3" stroke-linecap="round"/>
  <path d="M51 10c4 8 4 14 0 22" stroke="#f8e1ac" stroke-width="3" stroke-linecap="round" fill="none"/>
</svg>