<svg xmlns="http://www.w3.org/2000/svg" viewBox="0 0 64 64">
  <rect x="18" y="16" width="28" height="32" rx="12" fill="#6e8d45"/>
  <rect x="16" y="18" width="28" height="28" rx="11" fill="#88ad5b"/>
  <path d="M17 34c5-4 12-5 18-2 4 2 7 2 13-1v10c0 8-7 15-16 15-8 0-15-6-15-14V34Z" fill="#6f8e49" opacity=".8"/>
  <circle cx="27" cy="29" r="3" fill="#f8f1da"/>
  <circle cx="39" cy="27" r="3.2" fill="#f8f1da"/>
  <circle cx="28" cy="29" r="1.2" fill="#2a3421"/>
  <circle cx="40" cy="27" r="1.2" fill="#2a3421"/>
  <path d="M25 39c5 2 10 2 15-1" stroke="#2a3421" stroke-width="2.5" stroke-linecap="round" fill="none"/>
  <path d="M19 22l7-8M43 20l5-6" stroke="#b7d68a" stroke-width="3" stroke-linecap="round"/>
</svg>