<svg xmlns="http://www.w3.org/2000/svg" viewBox="0 0 128 96">
  <defs>
    <linearGradient id="boulderFace" x1="0" x2="1" y1="0" y2="1">
      <stop offset="0" stop-color="#8698a8"/>
      <stop offset="1" stop-color="#3f5060"/>
    </linearGradient>
    <linearGradient id="boulderRidge" x1="0" x2="0" y1="0" y2="1">
      <stop offset="0" stop-color="#c4d0d8" stop-opacity=".95"/>
      <stop offset="1" stop-color="#7a8b98" stop-opacity="0"/>
    </linearGradient>
  </defs>
  <path d="M18 75c-8-7-10-19-4-29l12-20c5-8 14-13 24-13h27c8 0 15 3 21 9l12 12c9 8 10 20 6 31l-4 11c-3 9-11 15-21 15H39c-8 0-16-3-21-9Z" fill="url(#boulderFace)"/>
  <path d="M28 62c6-15 18-28 35-35-12 1-24 6-31 17-5 8-7 13-4 18Z" fill="url(#boulderRidge)"/>
  <path d="M74 21c11 4 19 13 24 26 5 12 1 27-10 38 18-6 28-21 24-36-4-14-18-26-38-28Z" fill="#2e3b47" opacity=".34"/>
  <path d="M40 35l16-8 15 5 13-4 11 9-10 8 4 13-15 9-15-3-16 6-10-11 3-13Z" fill="none" stroke="#dce7ef" stroke-opacity=".35" stroke-width="3" stroke-linejoin="round"/>
  <path d="M50 78c12 6 31 5 46-2" stroke="#d7e0e6" stroke-opacity=".25" stroke-width="4" stroke-linecap="round" fill="none"/>
</svg>
